<svg width="269" height="263" viewBox="0 0 279 273" fill="none" xmlns="http://www.w3.org/2000/svg">
  <path stroke-width="10"
    d="M179.11 111.73V152.36C179.11 164.84 168.99 174.96 156.51 174.96H125.76C105.43 174.96 88.95 158.48 88.95 138.15V123.84C88.95 114.16 92.74 105.35 98.9 98.88C101.41 96.19 104.31 93.9 107.57 92.14C112.81 89.15 118.89 87.47 125.31 87.47H154.85C156.14 87.47 157.19 88.52 157.19 89.81V107.07C157.19 108.36 158.24 109.41 159.52 109.41H176.78C178.1 109.4 179.11 110.46 179.11 111.73Z"
    fill="transparent" stroke="#D32927" />
  <path stroke="#174785" stroke-width="10"
    d="M258.24 45.78H255.36H232.06C231.03 45.78 230.05 45.62 229.1 45.33C225.11 44.06 222.24 40.36 222.24 36V13.48V9.82C222.24 4.4 217.88 0 212.46 0H125.05C92.63 0 63.12 12.37 40.85 32.55C40.77 32.63 40.69 32.71 40.64 32.8C29.75 42.79 20.67 54.62 13.85 67.86C5.01 85.04 0 104.48 0 125.11V137.4C0 206.44 55.97 262.45 125.05 262.45H172.72C201.16 262.45 226.72 250.04 244.14 230.23C254.21 218.81 261.61 205 265.3 189.75C267.07 182.52 268.01 174.91 268.01 167.11V55.56C268.02 50.18 263.66 45.78 258.24 45.78ZM228.08 167.09C228.08 169.72 227.87 172.31 227.5 174.86C226.1 184.97 221.95 194.22 215.83 201.78C205.68 214.4 190.15 222.49 172.72 222.49H125.05C98.38 222.49 74.58 210.2 59.05 190.97C57.04 188.5 55.19 185.92 53.46 183.24C44.91 170.01 39.98 154.27 39.98 137.38V125.09C39.98 109.72 44.09 95.3 51.28 82.84C51.28 82.84 51.28 82.8 51.32 82.76C56 74.54 62.05 67.23 69.11 61.02C84.03 47.91 103.63 39.98 125.04 39.98H182.29V64.43C182.29 67.02 182.74 69.53 183.61 71.79C184.8 75.08 186.82 78 189.36 80.3C193.14 83.71 198.15 85.77 203.62 85.77H228.07V167.09H228.08Z"
    fill="transparent" />
</svg>