<?xml version="1.0" encoding="utf-8"?>
<!-- Generator: Adobe Illustrator 25.1.0, SVG Export Plug-In . SVG Version: 6.00 Build 0)  -->
<svg version="1.1" id="Camada_1" xmlns="http://www.w3.org/2000/svg" xmlns:xlink="http://www.w3.org/1999/xlink" x="0px"
  y="0px" viewBox="0 0 1023.69 437.37" style="enable-background:new 0 0 1023.69 437.37;" xml:space="preserve">
  <style type="text/css">
    .st0 {
      fill: #D32927;
    }

    .st1 {
      fill: #174785;
    }
  </style>
  <path class="st0" d="M269.78,199.21v40.63c0,12.48-10.12,22.6-22.6,22.6h-30.75c-20.33,0-36.81-16.48-36.81-36.81v-14.31
	c0-9.68,3.79-18.49,9.95-24.96c2.51-2.69,5.41-4.98,8.67-6.74c5.24-2.99,11.32-4.67,17.74-4.67h29.54c1.29,0,2.34,1.05,2.34,2.34
	v17.26c0,1.29,1.05,2.34,2.33,2.34h17.26C268.77,196.88,269.78,197.94,269.78,199.21z" />
  <path class="st1" d="M348.91,133.26h-2.88h-23.3c-1.03,0-2.01-0.16-2.96-0.45c-3.99-1.27-6.86-4.97-6.86-9.33v-22.52V97.3
	c0-5.42-4.36-9.82-9.78-9.82h-87.41c-32.42,0-61.93,12.37-84.2,32.55c-0.08,0.08-0.16,0.16-0.21,0.25
	c-10.89,9.99-19.97,21.82-26.79,35.06c-8.84,17.18-13.85,36.62-13.85,57.25v12.29c0,69.04,55.97,125.05,125.05,125.05h47.67
	c28.44,0,54-12.41,71.42-32.22c10.07-11.42,17.47-25.23,21.16-40.48c1.77-7.23,2.71-14.84,2.71-22.64V143.04
	C358.69,137.66,354.33,133.26,348.91,133.26z M318.75,254.57c0,2.63-0.21,5.22-0.58,7.77c-1.4,10.11-5.55,19.36-11.67,26.92
	c-10.15,12.62-25.68,20.71-43.11,20.71h-47.67c-26.67,0-50.47-12.29-66-31.52c-2.01-2.47-3.86-5.05-5.59-7.73
	c-8.55-13.23-13.48-28.97-13.48-45.86v-12.29c0-15.37,4.11-29.79,11.3-42.25c0,0,0-0.04,0.04-0.08
	c4.68-8.22,10.73-15.53,17.79-21.74c14.92-13.11,34.52-21.04,55.93-21.04h57.25v24.45c0,2.59,0.45,5.1,1.32,7.36
	c1.19,3.29,3.21,6.21,5.75,8.51c3.78,3.41,8.79,5.47,14.26,5.47h24.45V254.57z" />

</svg>