<?xml version="1.0" encoding="utf-8"?>
<!-- Generator: Adobe Illustrator 25.1.0, SVG Export Plug-In . SVG Version: 6.00 Build 0)  -->
<svg version="1.1" id="Camada_1" xmlns="http://www.w3.org/2000/svg" xmlns:xlink="http://www.w3.org/1999/xlink" x="0px" y="0px"
	 viewBox="0 0 1023.69 437.37" style="enable-background:new 0 0 1023.69 437.37;" xml:space="preserve">
<style type="text/css">
	.st0{fill:#D32927;}
	.st1{fill:#174785;}
</style>
<path class="st0" d="M269.78,199.21v40.63c0,12.48-10.12,22.6-22.6,22.6h-30.75c-20.33,0-36.81-16.48-36.81-36.81v-14.31
	c0-9.68,3.79-18.49,9.95-24.96c2.51-2.69,5.41-4.98,8.67-6.74c5.24-2.99,11.32-4.67,17.74-4.67h29.54c1.29,0,2.34,1.05,2.34,2.34
	v17.26c0,1.29,1.05,2.34,2.33,2.34h17.26C268.77,196.88,269.78,197.94,269.78,199.21z"/>
<path class="st1" d="M348.91,133.26h-2.88h-23.3c-1.03,0-2.01-0.16-2.96-0.45c-3.99-1.27-6.86-4.97-6.86-9.33v-22.52V97.3
	c0-5.42-4.36-9.82-9.78-9.82h-87.41c-32.42,0-61.93,12.37-84.2,32.55c-0.08,0.08-0.16,0.16-0.21,0.25
	c-10.89,9.99-19.97,21.82-26.79,35.06c-8.84,17.18-13.85,36.62-13.85,57.25v12.29c0,69.04,55.97,125.05,125.05,125.05h47.67
	c28.44,0,54-12.41,71.42-32.22c10.07-11.42,17.47-25.23,21.16-40.48c1.77-7.23,2.71-14.84,2.71-22.64V143.04
	C358.69,137.66,354.33,133.26,348.91,133.26z M318.75,254.57c0,2.63-0.21,5.22-0.58,7.77c-1.4,10.11-5.55,19.36-11.67,26.92
	c-10.15,12.62-25.68,20.71-43.11,20.71h-47.67c-26.67,0-50.47-12.29-66-31.52c-2.01-2.47-3.86-5.05-5.59-7.73
	c-8.55-13.23-13.48-28.97-13.48-45.86v-12.29c0-15.37,4.11-29.79,11.3-42.25c0,0,0-0.04,0.04-0.08
	c4.68-8.22,10.73-15.53,17.79-21.74c14.92-13.11,34.52-21.04,55.93-21.04h57.25v24.45c0,2.59,0.45,5.1,1.32,7.36
	c1.19,3.29,3.21,6.21,5.75,8.51c3.78,3.41,8.79,5.47,14.26,5.47h24.45V254.57z"/>
<polygon class="st0" points="507.83,244.12 454.22,255.22 496.44,272.53 "/>
<path class="st1" d="M827.24,272.49l47.15,0.03l5.49-128.8l0.03-0.74l0.23-5.47h0l0.2-4.53l45.75-0.5c3.91-0.04,7.03-3.29,6.9-7.21
	l-0.97-30.43c-0.12-3.76-3.19-6.75-6.95-6.76l-136.49-0.61h-75.34v0.02c-2.85,0.06-5.79,0.29-8.82,0.68
	c-10.6,1.38-20.89,4.32-30.87,8.81c-5.93,2.67-11.67,5.95-17.22,9.84c-11.35,8.42-20.11,18.89-26.3,31.41
	c-4.95,10.02-7.98,20.51-9.11,31.48l-19.29,4.08l-26.61-84.12c-0.42-1.26-1.55-2.55-2.88-2.57l-43.44,0
	c-1.2-0.01-2.3,0.67-2.83,1.74l-52.82,112.12l-24.21,49.37l-0.01,0.02l60.5-12.7l23.55-4.95l37.24-7.81
	c3.69,13.71,7.37,27.43,11.06,41.14c0.89,3.32,4.27,5.33,7.62,4.53l34.85-8.36c3.62-0.87,5.72-4.64,4.55-8.18l-12.79-38.63
	l11.16-2.34c0.6,1.56,1.25,3.12,1.95,4.66c2.54,5.64,5.42,10.69,8.65,15.15c8.47,11.5,19.08,20.46,31.81,26.9
	c12.73,6.45,26.15,9.88,40.26,10.31c14.11,0.43,27.46-2.19,40.04-7.85c5.06-2.28,10.08-5.23,15.05-8.87
	c9.95-7.26,17.72-16.46,23.32-27.59c5.6-11.13,8.62-22.88,9.05-35.26c0.43-12.37-1.73-23.83-6.48-34.39
	c-0.04-0.08-0.07-0.16-0.11-0.25c-5.69-12.53-19.58-19.17-33-16.08l-59.65,13.73l-24.4,5.16c2.46-5.58,6.13-10.25,11.02-14.01
	c3-2.22,6.09-4.05,9.28-5.48c5.34-2.41,10.96-3.94,16.85-4.59c1.46-0.16,2.88-0.25,4.26-0.27h1.57h10.08h27.97l29.41-0.32l5.09-0.05
	l44.51-0.48l-0.44,10.22L827.24,272.49z M528.8,189.2l1.89-4.72l17.13-42.59c3.67,13.66,7.34,27.31,11.01,40.96L528.8,189.2z
	 M706.08,196.38l41.93-10.01c0.62,4.07-0.7,8.58-3.96,13.52c-3.25,4.95-7.04,9-11.35,12.16c-1.97,1.41-3.98,2.57-6,3.48
	c-8.39,3.78-17.23,4.24-26.52,1.37c-8.64-2.66-15.88-7.57-21.73-14.73L706.08,196.38z"/>
<path class="st0" d="M487.97,308.69c2.09,0,4.16,0.17,6.2,0.5c2.04,0.33,3.93,1.01,5.66,2.03c1.33-0.66,2.88-1.25,4.67-1.76
	c1.78-0.51,3.8-0.76,6.04-0.76c1.99,0,4.04,0.19,6.16,0.57c2.12,0.38,4.03,1.19,5.74,2.41c1.71,1.22,3.11,2.98,4.21,5.28
	c1.1,2.29,1.64,5.33,1.64,9.1v22.87c-1.33,0.25-2.52,0.42-3.6,0.5c-1.07,0.08-2.01,0.11-2.83,0.11c-0.87,0-1.84-0.04-2.91-0.11
	c-1.07-0.08-2.27-0.24-3.6-0.5v-21.49c0-2.7-0.46-4.64-1.38-5.81c-0.92-1.17-2.42-1.76-4.51-1.76c-0.71,0-1.41,0.08-2.1,0.23
	s-1.16,0.28-1.42,0.38c0.46,1.79,0.69,3.83,0.69,6.12v22.33c-1.33,0.25-2.52,0.42-3.6,0.5c-1.07,0.08-2.01,0.11-2.83,0.11
	c-0.87,0-1.84-0.04-2.91-0.11c-1.07-0.08-2.27-0.24-3.6-0.5v-21.49c0-2.7-0.43-4.64-1.3-5.81c-0.87-1.17-2.35-1.76-4.44-1.76
	c-0.56,0-1.16,0.05-1.8,0.15c-0.64,0.1-1.03,0.2-1.19,0.31v28.61c-1.33,0.25-2.52,0.42-3.6,0.5c-1.07,0.08-2.01,0.11-2.83,0.11
	c-0.87,0-1.84-0.04-2.91-0.11c-1.07-0.08-2.27-0.24-3.6-0.5v-37.56c1.78-0.61,3.93-1.21,6.43-1.8
	C480.98,308.98,484.14,308.69,487.97,308.69z"/>
<path class="st0" d="M587.79,348.92c-1.33,0.2-2.52,0.36-3.6,0.46c-1.07,0.1-2.04,0.15-2.91,0.15c-0.87,0-1.84-0.05-2.91-0.15
	c-1.07-0.1-2.24-0.26-3.52-0.46v-39.47c1.12-0.25,2.23-0.43,3.33-0.54c1.1-0.1,2.15-0.15,3.17-0.15c0.97,0,2.01,0.05,3.14,0.15
	c1.12,0.1,2.22,0.28,3.29,0.54V348.92z"/>
<path class="st0" d="M730.82,348.92c-1.33,0.2-2.52,0.36-3.6,0.46c-1.07,0.1-2.04,0.15-2.91,0.15c-0.87,0-1.84-0.05-2.91-0.15
	c-1.07-0.1-2.24-0.26-3.52-0.46v-39.47c1.12-0.25,2.23-0.43,3.33-0.54c1.1-0.1,2.15-0.15,3.17-0.15c0.97,0,2.01,0.05,3.14,0.15
	c1.12,0.1,2.22,0.28,3.29,0.54V348.92z"/>
<path class="st0" d="M598.42,294.76c-0.92-0.15-2-0.27-3.25-0.34c-1.25-0.08-2.54-0.11-3.86-0.11c-2.7,0-5.05,0.15-7.04,0.46
	l-8.18,9.41c0.87,0.2,1.77,0.33,2.71,0.38c0.94,0.05,1.9,0.08,2.87,0.08c2.19,0,4.05-0.15,5.58-0.46L598.42,294.76z"/>
<path class="st0" d="M656.86,294.15c1.27-0.2,2.45-0.36,3.52-0.46c1.07-0.1,2.04-0.15,2.91-0.15c0.87,0,1.84,0.05,2.91,0.15
	c1.07,0.1,2.27,0.26,3.6,0.46v46.12c0,4.49-3.24,8.39-7.69,9.05c-0.03,0-0.05,0.01-0.08,0.01c-2.58,0.38-5.52,0.57-8.83,0.57
	c-2.7,0-5.29-0.37-7.76-1.11c-2.47-0.74-4.64-1.91-6.5-3.52c-1.86-1.61-3.34-3.7-4.44-6.27c-1.1-2.57-1.64-5.67-1.64-9.29
	c0-2.91,0.47-5.65,1.41-8.22c0.94-2.57,2.29-4.81,4.05-6.69c1.76-1.89,3.88-3.38,6.35-4.47c2.47-1.1,5.24-1.64,8.3-1.64
	c1.27,0,2.57,0.08,3.9,0.23V294.15z M646,329.57c0.05,3.37,0.82,5.74,2.3,7.11c1.48,1.38,3.34,2.07,5.58,2.07
	c0.71,0,1.31-0.01,1.8-0.04c0.48-0.03,0.88-0.06,1.19-0.11v-19.12c-0.15-0.05-0.5-0.1-1.03-0.15c-0.54-0.05-1.24-0.08-2.1-0.08
	c-1.33,0-2.47,0.28-3.44,0.84c-0.97,0.56-1.77,1.31-2.41,2.26c-0.64,0.94-1.11,2.04-1.42,3.29C646.15,326.88,646,328.19,646,329.57z
	"/>
<path class="st0" d="M730.82,293.85c0.25,1.17,0.42,2.23,0.5,3.17c0.08,0.94,0.11,1.77,0.11,2.49c0,0.76-0.04,1.62-0.11,2.56
	c-0.08,0.94-0.24,2-0.5,3.17c-1.33,0.2-2.52,0.34-3.6,0.42c-1.07,0.08-2.01,0.11-2.83,0.11c-0.87,0-1.84-0.04-2.91-0.11
	c-1.07-0.08-2.27-0.22-3.6-0.42c-0.26-1.17-0.42-2.23-0.5-3.17c-0.08-0.94-0.11-1.8-0.11-2.56c0-0.71,0.04-1.54,0.11-2.49
	c0.08-0.94,0.24-2,0.5-3.17c1.33-0.2,2.52-0.34,3.6-0.42c1.07-0.08,2.04-0.11,2.91-0.11c0.82,0,1.76,0.04,2.83,0.11
	C728.3,293.5,729.5,293.64,730.82,293.85z"/>
<path class="st0" d="M776.64,336.07c0-2.5,0.54-4.56,1.61-6.2c1.07-1.63,2.45-2.93,4.13-3.9c1.68-0.97,3.54-1.64,5.58-2.03
	c2.04-0.38,4.03-0.57,5.97-0.57h4.67c-0.05-0.92-0.31-1.68-0.76-2.3c-0.46-0.61-1.05-1.08-1.76-1.41c-0.71-0.33-1.51-0.56-2.37-0.69
	c-0.87-0.13-1.76-0.19-2.68-0.19c-1.22,0-2.65,0.14-4.28,0.42c-1.63,0.28-3.32,0.73-5.05,1.34c-0.46-0.87-0.85-1.66-1.19-2.37
	c-0.33-0.71-0.59-1.44-0.76-2.18c-0.18-0.74-0.31-1.5-0.38-2.29c-0.08-0.79-0.11-1.69-0.11-2.72c2.45-0.81,4.88-1.43,7.3-1.84
	c2.42-0.41,4.6-0.61,6.54-0.61c2.65,0,5.05,0.32,7.19,0.96c2.14,0.64,3.96,1.62,5.47,2.95c1.5,1.33,2.66,3.02,3.48,5.09
	c0.81,2.06,1.22,4.53,1.22,7.38v15.52c0,4.14-2.9,7.73-6.95,8.56c-0.03,0.01-0.05,0.01-0.08,0.02c-2.75,0.56-5.66,0.84-8.72,0.84
	c-2.65,0-5.09-0.24-7.3-0.73c-2.22-0.48-4.12-1.26-5.7-2.33c-1.58-1.07-2.82-2.49-3.71-4.25
	C777.09,340.77,776.64,338.62,776.64,336.07z M794.69,340.35c0.46,0,1.12-0.05,1.99-0.15c0.87-0.1,1.5-0.2,1.91-0.31v-8.41h-4.36
	c-1.79,0-3.29,0.38-4.51,1.15c-1.22,0.76-1.84,1.84-1.84,3.21c0,1.02,0.23,1.82,0.69,2.41c0.46,0.59,1.03,1.03,1.72,1.34
	c0.69,0.31,1.43,0.51,2.22,0.61C793.3,340.3,794.03,340.35,794.69,340.35z"/>
<path class="st0" d="M875.93,324.21c1.53,0.41,2.92,0.91,4.17,1.49c1.25,0.59,2.32,1.34,3.21,2.26c0.89,0.92,1.59,2.04,2.1,3.37
	c0.51,1.33,0.76,2.93,0.76,4.82c0,1.94-0.39,3.75-1.18,5.43c-0.79,1.68-1.96,3.14-3.52,4.36c-1.56,1.22-3.47,2.19-5.74,2.91
	c-2.27,0.71-4.88,1.07-7.84,1.07c-2.45,0-4.72-0.18-6.81-0.53c-2.09-0.36-4.31-0.97-6.65-1.84c0.25-3.47,1.2-6.99,2.83-10.56
	c1.63,0.76,3.34,1.34,5.12,1.72c1.78,0.38,3.57,0.57,5.35,0.57c0.61,0,1.25-0.03,1.91-0.08c0.66-0.05,1.25-0.17,1.76-0.34
	c0.51-0.18,0.93-0.42,1.26-0.73c0.33-0.31,0.5-0.71,0.5-1.22c0-0.66-0.33-1.16-0.99-1.49c-0.66-0.33-1.43-0.62-2.29-0.88l-5.2-1.45
	c-2.7-0.76-4.95-2.07-6.73-3.9c-1.79-1.84-2.68-4.33-2.68-7.5c0-1.99,0.41-3.8,1.22-5.43c0.81-1.63,1.96-3.02,3.44-4.17
	c1.48-1.15,3.22-2.03,5.24-2.64c2.01-0.61,4.25-0.92,6.69-0.92c1.94,0,4.05,0.2,6.35,0.61c2.3,0.41,4.56,0.99,6.81,1.76
	c-0.1,1.63-0.43,3.38-0.99,5.24c-0.56,1.86-1.2,3.51-1.91,4.93c-1.38-0.56-3.03-1.07-4.97-1.53c-1.94-0.46-3.72-0.69-5.35-0.69
	c-2.4,0-3.6,0.66-3.6,1.99c0,0.56,0.28,0.99,0.84,1.3c0.56,0.31,1.2,0.56,1.91,0.76L875.93,324.21z"/>
</svg>
