<?xml version="1.0" encoding="utf-8"?>
<!-- Generator: Adobe Illustrator 24.1.1, SVG Export Plug-In . SVG Version: 6.00 Build 0)  -->
<svg version="1.1" id="Camada_1" xmlns="http://www.w3.org/2000/svg" xmlns:xlink="http://www.w3.org/1999/xlink" x="0px" y="0px"
	 viewBox="0 0 877.25 393.46" style="enable-background:new 0 0 877.25 393.46;" xml:space="preserve">
<style type="text/css">
	.st0{fill:#D42927;}
	.st1{fill:#174886;}
</style>
<path class="st0" d="M230.11,184.66h-13.59c-1.01,0-1.84-0.83-1.84-1.84V167.4h-25.1c-5.06,0-9.84,1.32-13.97,3.67
	c-2.57,1.39-4.85,3.19-6.83,5.3c-4.85,5.1-7.83,12.03-7.83,19.65v11.61c0,15.81,12.82,28.63,28.63,28.63h24.96
	c9.64,0,17.4-7.8,17.4-17.44v-3.67V186.5C231.95,185.49,231.15,184.66,230.11,184.66z"/>
<path class="st1" d="M303.87,124.67h-2.43h-19.65c-0.87,0-1.7-0.14-2.5-0.38c-3.36-1.07-5.79-4.19-5.79-7.87V97.42v-3.08
	c0-4.58-3.67-8.28-8.25-8.28h-73.73c-27.35,0-52.24,10.43-71.02,27.45c-0.07,0.07-0.14,0.14-0.17,0.21
	c-9.19,8.42-16.85,18.41-22.6,29.57c-7.45,14.49-11.68,30.88-11.68,48.28v10.36c0,58.23,47.21,105.48,105.48,105.48h40.21
	c23.99,0,45.55-10.47,60.24-27.17c8.49-9.64,14.73-21.28,17.85-34.14c1.49-6.1,2.29-12.51,2.29-19.1v-94.07
	C312.12,128.38,308.45,124.67,303.87,124.67z M278.43,226.99c0,2.22-0.17,4.4-0.49,6.55c-1.18,8.53-4.68,16.33-9.84,22.7
	c-8.56,10.64-21.66,17.47-36.36,17.47h-40.21c-22.5,0-42.56-10.36-55.67-26.59c-1.7-2.08-3.26-4.26-4.71-6.52
	c-7.21-11.16-11.37-24.44-11.37-38.68v-10.36c0-12.96,3.47-25.13,9.53-35.63c0,0,0-0.03,0.03-0.07c3.95-6.93,9.05-13.1,15.01-18.34
	c12.58-11.06,29.12-17.75,47.18-17.75h48.28v20.62c0,2.18,0.38,4.3,1.11,6.2c1.01,2.77,2.7,5.23,4.85,7.17
	c3.19,2.88,7.42,4.61,12.03,4.61h20.62V226.99z"/>
<polygon class="st0" points="413.6,222.75 366.01,232.6 403.48,247.96 "/>
<path class="st1" d="M697.11,250.28l41.85,0.03l4.87-114.33l0.03-0.66l0.21-4.86h0l0.18-4.02l46.94-0.51l-1.25-39.31l-127.13-0.57
	h-66.88v0.02c-2.53,0.06-5.14,0.25-7.83,0.6c-9.41,1.22-18.54,3.83-27.4,7.82c-5.26,2.37-10.36,5.28-15.29,8.74
	c-10.07,7.47-17.85,16.76-23.34,27.88c-4.39,8.89-7.08,18.21-8.09,27.94l-17.13,3.62l-24.12-72.89l-42.24-0.42l-47.76,97.43
	l-21.49,43.82l-0.01,0.02l53.7-11.27l20.9-4.39l33.05-6.94c3.75,13.94,7.49,27.88,11.24,41.82l42.23-10.13l-13.28-40.12l9.91-2.08
	c0.54,1.39,1.11,2.77,1.73,4.13c2.25,5.01,4.81,9.49,7.68,13.45c7.52,10.2,16.93,18.16,28.24,23.88c11.3,5.72,23.21,8.77,35.74,9.16
	c12.52,0.38,24.37-1.94,35.54-6.97c4.49-2.02,8.95-4.64,13.36-7.87c8.83-6.44,15.73-14.61,20.7-24.49
	c4.97-9.88,7.65-20.31,8.03-31.29c0.38-10.98-1.53-21.15-5.75-30.52c-3.29-7.32-7.58-13.41-12.87-18.29l-69.46,15.99l-21.66,4.58
	c2.18-4.95,5.45-9.1,9.78-12.43c2.66-1.97,5.41-3.59,8.23-4.86c4.74-2.14,9.73-3.49,14.96-4.07c1.3-0.14,2.56-0.22,3.78-0.24h1.39
	h8.95h24.82l26.11-0.28l4.52-0.05l39.5-0.43l-0.39,9.07L697.11,250.28z M432.21,176.34l1.68-4.19l15.21-37.8
	c3.26,12.12,6.51,24.24,9.77,36.36L432.21,176.34z M589.56,182.72l37.22-8.88c0.55,3.61-0.62,7.61-3.51,12
	c-2.88,4.39-6.25,7.98-10.08,10.79c-1.75,1.25-3.53,2.28-5.32,3.09c-7.45,3.35-15.29,3.76-23.54,1.22
	c-7.67-2.36-14.1-6.72-19.29-13.07L589.56,182.72z"/>
<g>
	<polygon class="st1" points="422.17,264.98 406.79,290.9 391.18,264.98 383.2,264.98 383.2,306.69 392.26,306.69 392.26,282.2 
		404.47,302.28 408.82,302.28 421.1,281.67 421.15,306.69 430.21,306.69 430.09,264.98 	"/>
	<rect x="468.29" y="264.98" class="st1" width="9.65" height="41.71"/>
	<polygon class="st1" points="467.69,261.59 474.96,261.59 485.74,253.01 475.73,253.01 	"/>
	<path class="st1" d="M546.97,267.57c-3.48-1.73-7.48-2.59-12.01-2.59h-18.95v41.71h18.95c4.53,0,8.53-0.86,12.01-2.59
		c3.48-1.73,6.18-4.16,8.1-7.3c1.93-3.14,2.89-6.79,2.89-10.96c0-4.17-0.96-7.83-2.89-10.96
		C553.14,271.74,550.44,269.3,546.97,267.57z M544.47,295.28c-2.48,2.32-5.81,3.49-9.98,3.49h-8.82v-25.86h8.82
		c4.17,0,7.5,1.16,9.98,3.49c2.48,2.32,3.72,5.47,3.72,9.44C548.19,289.81,546.95,292.96,544.47,295.28z"/>
	<rect x="593.41" y="264.98" class="st1" width="9.65" height="41.71"/>
	<path class="st1" d="M654.25,264.98l-18.59,41.71h9.89l3.69-8.94h19.36l3.69,8.94h10.13l-18.65-41.71H654.25z M652.34,290.42
		l6.61-15.97l6.61,15.97H652.34z"/>
	<path class="st1" d="M744.19,287.86c-1.45-1.63-3.19-2.82-5.21-3.58c-2.03-0.75-4.63-1.51-7.81-2.26
		c-3.06-0.68-5.33-1.36-6.82-2.06c-1.49-0.69-2.23-1.76-2.23-3.19s0.65-2.58,1.94-3.46c1.29-0.87,3.29-1.31,5.99-1.31
		c3.85,0,7.71,1.09,11.56,3.28l2.98-7.33c-1.91-1.19-4.13-2.11-6.67-2.74c-2.54-0.63-5.14-0.95-7.81-0.95
		c-3.81,0-7.04,0.58-9.68,1.73c-2.64,1.15-4.62,2.71-5.93,4.68c-1.31,1.97-1.97,4.16-1.97,6.58c0,2.78,0.72,5.01,2.17,6.67
		c1.45,1.67,3.19,2.88,5.21,3.63c2.03,0.75,4.63,1.51,7.81,2.26c2.07,0.48,3.7,0.91,4.92,1.31c1.21,0.4,2.2,0.92,2.98,1.58
		s1.16,1.48,1.16,2.47c0,1.35-0.66,2.43-1.97,3.25c-1.31,0.81-3.34,1.22-6.08,1.22c-2.46,0-4.93-0.4-7.39-1.19
		c-2.46-0.79-4.59-1.85-6.38-3.16l-3.28,7.27c1.87,1.43,4.34,2.59,7.42,3.49c3.08,0.89,6.27,1.34,9.56,1.34
		c3.81,0,7.05-0.58,9.71-1.73c2.66-1.15,4.66-2.71,5.99-4.68c1.33-1.97,2-4.14,2-6.52C746.37,291.7,745.64,289.49,744.19,287.86z"/>
</g>
</svg>
